<svg xmlns="http://www.w3.org/2000/svg" viewBox="0 0 400 2400">
  <!-- ヘッダー -->
  <rect x="0" y="0" width="400" height="60" fill="#f0f0f0" />
  <text x="20" y="40" font-size="20">ヘアールームICHI</text>
  <rect x="330" y="15" width="50" height="30" fill="none" stroke="#000" />
  <text x="355" y="35" font-size="14" text-anchor="middle">メニュー</text>

  <!-- トップセクション -->
  <rect x="0" y="60" width="400" height="400" fill="#e0e0e0" />
  <text x="200" y="100" font-size="24" text-anchor="middle">キャッチフレーズ</text>
  <rect x="50" y="130" width="300" height="200" fill="#ccc" />
  <text x="200" y="230" font-size="18" text-anchor="middle">理容室イメージ画像</text>
  <rect x="100" y="350" width="200" height="50" fill="#97bd8a" />
  <text x="200" y="380" font-size="20" text-anchor="middle" fill="white">予約する</text>

  <!-- 特徴セクション -->
  <rect x="0" y="460" width="400" height="500" fill="#f0f0f0" />
  <text x="200" y="500" font-size="24" text-anchor="middle">特徴</text>
  <rect x="50" y="530" width="300" height="130" fill="#fff" stroke="#000" />
  <text x="200" y="600" font-size="14" text-anchor="middle">アットホームな雰囲気</text>
  <rect x="50" y="680" width="300" height="130" fill="#fff" stroke="#000" />
  <text x="200" y="750" font-size="14" text-anchor="middle">ベテラン女性スタッフ</text>
  <rect x="50" y="830" width="300" height="130" fill="#fff" stroke="#000" />
  <text x="200" y="900" font-size="14" text-anchor="middle">地域密着型サービス</text>

  <!-- 写真ギャラリー -->
  <rect x="0" y="960" width="400" height="400" fill="#e0e0e0" />
  <text x="200" y="1000" font-size="24" text-anchor="middle">写真ギャラリー</text>
  <rect x="50" y="1030" width="300" height="150" fill="#fff" stroke="#000" />
  <text x="200" y="1110" font-size="14" text-anchor="middle">店舗外観</text>
  <rect x="50" y="1200" width="300" height="150" fill="#fff" stroke="#000" />
  <text x="200" y="1280" font-size="14" text-anchor="middle">店舗内装</text>

  <!-- メニューと料金 -->
  <rect x="0" y="1360" width="400" height="400" fill="#f0f0f0" />
  <text x="200" y="1400" font-size="24" text-anchor="middle">メニューと料金</text>
  <rect x="50" y="1430" width="300" height="300" fill="#fff" stroke="#000" />

  <!-- 所在地 -->
  <rect x="0" y="1760" width="400" height="400" fill="#e0e0e0" />
  <text x="200" y="1800" font-size="24" text-anchor="middle">所在地</text>
  <rect x="50" y="1830" width="300" height="200" fill="#fff" stroke="#000" />
  <text x="200" y="1940" font-size="14" text-anchor="middle">Googleマップ</text>
  <rect x="50" y="2050" width="300" height="100" fill="#fff" stroke="#000" />
  <text x="200" y="2100" font-size="14" text-anchor="middle">住所・アクセス情報</text>

  <!-- フッター -->
  <rect x="0" y="2160" width="400" height="240" fill="#f0f0f0" />
  <text x="200" y="2200" font-size="14" text-anchor="middle">店舗名</text>
  <text x="200" y="2230" font-size="14" text-anchor="middle">住所</text>
  <text x="200" y="2260" font-size="14" text-anchor="middle">営業時間 | 定休日</text>
  <text x="200" y="2290" font-size="14" text-anchor="middle">電話番号</text>
  <text x="200" y="2320" font-size="14" text-anchor="middle">支払い方法</text>
  <text x="200" y="2350" font-size="14" text-anchor="middle">© 2024 ヘアールームICHI</text>
</svg>
