<svg xmlns="http://www.w3.org/2000/svg" viewBox="0 0 800 2000">
  <!-- ヘッダー -->
  <rect x="0" y="0" width="800" height="80" fill="#f0f0f0" />
  <text x="20" y="50" font-size="24">ヘアールームICHI</text>
  <rect x="500" y="20" width="60" height="40" fill="none" stroke="#000" />
  <text x="530" y="45" font-size="14" text-anchor="middle">特徴</text>
  <rect x="570" y="20" width="60" height="40" fill="none" stroke="#000" />
  <text x="600" y="45" font-size="14" text-anchor="middle">写真</text>
  <rect x="640" y="20" width="60" height="40" fill="none" stroke="#000" />
  <text x="670" y="45" font-size="14" text-anchor="middle">料金</text>
  <rect x="710" y="20" width="60" height="40" fill="none" stroke="#000" />
  <text x="740" y="45" font-size="14" text-anchor="middle">所在地</text>

  <!-- トップセクション -->
  <rect x="0" y="80" width="800" height="400" fill="#e0e0e0" />
  <text x="400" y="150" font-size="36" text-anchor="middle">キャッチフレーズ</text>
  <rect x="200" y="200" width="400" height="200" fill="#ccc" />
  <text x="400" y="300" font-size="24" text-anchor="middle">理容室イメージ画像</text>
  <rect x="300" y="420" width="200" height="60" fill="#97bd8a" />
  <text x="400" y="460" font-size="24" text-anchor="middle" fill="white">予約する</text>

  <!-- 特徴セクション -->
  <rect x="0" y="480" width="800" height="300" fill="#f0f0f0" />
  <text x="400" y="520" font-size="24" text-anchor="middle">特徴</text>
  <rect x="50" y="550" width="220" height="200" fill="#fff" stroke="#000" />
  <text x="160" y="660" font-size="14" text-anchor="middle">アットホームな雰囲気</text>
  <rect x="290" y="550" width="220" height="200" fill="#fff" stroke="#000" />
  <text x="400" y="660" font-size="14" text-anchor="middle">ベテラン女性スタッフ</text>
  <rect x="530" y="550" width="220" height="200" fill="#fff" stroke="#000" />
  <text x="640" y="660" font-size="14" text-anchor="middle">地域密着型サービス</text>

  <!-- 写真ギャラリー -->
  <rect x="0" y="780" width="800" height="400" fill="#e0e0e0" />
  <text x="400" y="820" font-size="24" text-anchor="middle">写真ギャラリー</text>
  <rect x="50" y="850" width="340" height="300" fill="#fff" stroke="#000" />
  <text x="220" y="1000" font-size="14" text-anchor="middle">店舗外観</text>
  <rect x="410" y="850" width="340" height="300" fill="#fff" stroke="#000" />
  <text x="580" y="1000" font-size="14" text-anchor="middle">店舗内装</text>

  <!-- メニューと料金 -->
  <rect x="0" y="1180" width="800" height="400" fill="#f0f0f0" />
  <text x="400" y="1220" font-size="24" text-anchor="middle">メニューと料金</text>
  <rect x="100" y="1250" width="600" height="300" fill="#fff" stroke="#000" />
  <line x1="100" y1="1300" x2="700" y2="1300" stroke="#000" />
  <line x1="400" y1="1250" x2="400" y2="1550" stroke="#000" />

  <!-- 所在地 -->
  <rect x="0" y="1580" width="800" height="300" fill="#e0e0e0" />
  <text x="400" y="1620" font-size="24" text-anchor="middle">所在地</text>
  <rect x="50" y="1650" width="450" height="200" fill="#fff" stroke="#000" />
  <text x="275" y="1760" font-size="14" text-anchor="middle">Googleマップ</text>
  <rect x="520" y="1650" width="230" height="200" fill="#fff" stroke="#000" />
  <text x="635" y="1760" font-size="14" text-anchor="middle">住所・アクセス情報</text>

  <!-- フッター -->
  <rect x="0" y="1880" width="800" height="120" fill="#f0f0f0" />
  <text x="400" y="1920" font-size="14" text-anchor="middle">店舗名 | 住所 | 営業時間 | 定休日</text>
  <text x="400" y="1950" font-size="14" text-anchor="middle">電話番号 | 支払い方法</text>
  <text x="400" y="1980" font-size="14" text-anchor="middle">© 2024 ヘアールームICHI</text>
</svg>
